<svg id="menu_02_light" xmlns="http://www.w3.org/2000/svg" width="22" height="22" viewBox="0 0 28 28">
  <rect id="Rectangle_9" data-name="Rectangle 9" width="22" height="22" fill="#1E59AD" opacity="0"/>
  <path id="Path_1" data-name="Path 1" d="M1145.432-637.146a2.737,2.737,0,0,1,2.141,1.834,3.014,3.014,0,0,1,.159.959q.015,6.4.005,12.806a2.754,2.754,0,0,1-2.823,2.83q-9.17.006-18.34,0a2.757,2.757,0,0,1-2.829-2.825q-.007-7.384,0-14.768a6.648,6.648,0,0,1,.5-2.616,3.738,3.738,0,0,1,3.142-2.343,7.615,7.615,0,0,1,1.035-.061q7.036-.006,14.073,0a2.775,2.775,0,0,1,2.939,2.948Q1145.433-637.765,1145.432-637.146Zm-19.723-.052h17.877c0-.414,0-.807,0-1.2a.955.955,0,0,0-1.1-1.086h-14.074c-.163,0-.327,0-.49.009A2.182,2.182,0,0,0,1125.709-637.2Zm18.8,9.469a2.081,2.081,0,0,0-2.083-2.063,2.081,2.081,0,0,0-2.07,2.076,2.082,2.082,0,0,0,2.068,2.078A2.077,2.077,0,0,0,1144.509-627.728Z" transform="translate(-1121.741 644.331)" fill="#1E59AD"/>
</svg>
