<svg id="pic_logo" xmlns="http://www.w3.org/2000/svg" width="70" height="26" viewBox="0 0 100 36">
  <g id="logo" transform="translate(3 1.5)">
    <path id="Path_1125" data-name="Path 1125" d="M388.722,36.9v3.922H384.8V36.9Z" transform="translate(-332.757 -31.909)" fill="#fff"/>
    <path id="Path_1126" data-name="Path 1126" d="M320.984,36.727V59.759H317.1V36.727Zm8.75,23.032h-3.9v-16.2h2.935a.961.961,0,0,1,.96.947ZM354.444,36.7V59.759h-3.9V36.7Zm-25.4.027c3.1,0,4.477,1.582,5.41,4.125l6.492,14.2a1.492,1.492,0,0,0,1.42.92h3.327v3.787h-3.205c-3.1,0-4.517-1.582-5.437-4.125l-6.492-14.2a1.37,1.37,0,0,0-1.38-.96h-3.327V36.727Zm12.727,15.256V36.727h3.922v16.2h-2.962A.944.944,0,0,1,341.772,51.983Zm-28.889-8.669v8.372c0,4.45-2.34,7.682-8.237,7.682H297.1v-3.9h7.317c3.489,0,4.544-1.677,4.544-3.827V43.314Z" transform="translate(-256.918 -31.736)" fill="#fff"/>
    <path id="Path_1127" data-name="Path 1127" d="M0,27.223A14.828,14.828,0,0,1,14.823,12.4a14.3,14.3,0,0,1,2.164.162L8.264,21.286a7.379,7.379,0,0,0,0,10.441l2.11,2.11.162.162L5.667,38.868A14.759,14.759,0,0,1,0,27.223Zm24.033-11.6L19.5,20.15l.162.162,2.11,2.11a7.379,7.379,0,0,1,0,10.441l-9.021,9.021A14.786,14.786,0,0,0,29.632,27.209a14.712,14.712,0,0,0-5.6-11.591Z" transform="translate(0 -10.723)" fill="#fff"/>
    <path id="Path_1128" data-name="Path 1128" d="M44.311,14.268a2.123,2.123,0,0,0,0,3.03l2.11,2.11-2.353,2.353-2.11-2.11a5.453,5.453,0,0,1,0-7.736L52.4,1.474,53.859,0A17.96,17.96,0,0,1,56.9,1.677l-1.379,1.38L44.311,14.268Zm8.466-1.217-2.11-2.11L48.3,13.295l2.11,2.11a2.139,2.139,0,0,1-.014,3.03l-11.6,11.6L37.4,31.431A17.558,17.558,0,0,0,40.551,33l1.528-1.5,10.7-10.7a5.469,5.469,0,0,0,0-7.75Z" transform="translate(-32.342)" fill="#fff"/>
  </g>
  <rect id="Rectangle_2808" data-name="Rectangle 2808" width="50" height="26" fill="#fff" opacity="0"/>
</svg>
